<svg width="100" height="100" viewBox="0 0 15 14" fill="none" xmlns="http://www.w3.org/2000/svg">
<path d="M13.5561 5.15667L9.72443 4.82417L8.22818 1.30125C7.95901 0.66 7.04068 0.66 6.77151 1.30125L5.27526 4.83208L1.45151 5.15667C0.754844 5.21208 0.469844 6.08292 1.00026 6.54208L3.90568 9.05958L3.03484 12.7962C2.87651 13.4771 3.61276 14.0154 4.21443 13.6512L7.49984 11.6721L10.7853 13.6592C11.3869 14.0233 12.1232 13.485 11.9648 12.8042L11.094 9.05958L13.9994 6.54208C14.5298 6.08292 14.2528 5.21208 13.5561 5.15667ZM7.49984 10.1917V2.82917L8.85359 6.0275L12.3211 6.32833L9.69276 8.60833L10.4844 11.9967L7.49984 10.1917Z" fill="#FFB800"/>
</svg>
