<svg width="13" height="13" viewBox="0 0 13 13" fill="none" xmlns="http://www.w3.org/2000/svg">
<path d="M0.875 0.875H12.125C12.2908 0.875 12.4497 0.940848 12.5669 1.05806C12.6842 1.17527 12.75 1.33424 12.75 1.5V11.5C12.75 11.6658 12.6842 11.8247 12.5669 11.9419C12.4497 12.0592 12.2908 12.125 12.125 12.125H0.875C0.70924 12.125 0.550268 12.0592 0.433058 11.9419C0.315848 11.8247 0.25 11.6658 0.25 11.5V1.5C0.25 1.33424 0.315848 1.17527 0.433058 1.05806C0.550268 0.940848 0.70924 0.875 0.875 0.875ZM11.5 6.5H1.5V10.875H11.5V6.5ZM11.5 4V2.125H1.5V4H11.5Z" fill="#B5179E"/>
</svg>
