<svg width="100" height="100" viewBox="0 0 14 12" fill="none" xmlns="http://www.w3.org/2000/svg">
<path fill-rule="evenodd" clip-rule="evenodd" d="M1.86644 2.2667C1.86644 2.00897 2.07537 1.80003 2.33311 1.80003H11.6664C11.9241 1.80003 12.1331 2.00897 12.1331 2.2667V7.8667C12.1331 8.12443 11.9241 8.33337 11.6664 8.33337H2.33311C2.07537 8.33337 1.86644 8.12443 1.86644 7.8667V2.2667ZM1.86644 9.18699C1.32268 8.99482 0.933105 8.47626 0.933105 7.8667V2.2667C0.933105 1.4935 1.5599 0.866699 2.33311 0.866699H11.6664C12.4396 0.866699 13.0664 1.4935 13.0664 2.2667V7.8667C13.0664 8.47626 12.6769 8.99482 12.1331 9.18699V9.73337C12.1331 10.5065 11.5063 11.1334 10.7331 11.1334H3.26644C2.49324 11.1334 1.86644 10.5065 1.86644 9.73337V9.18699ZM11.1998 9.2667V9.73337C11.1998 9.99106 10.9908 10.2 10.7331 10.2H3.26644C3.00871 10.2 2.79977 9.99106 2.79977 9.73337V9.2667H11.1998Z" fill="#0D0520"/>
</svg>
