<svg width="100" height="100" viewBox="0 0 12 12" fill="none" xmlns="http://www.w3.org/2000/svg">
<path d="M7.16673 0.166627C8.23421 0.166117 9.2696 0.531598 10.1002 1.20212C10.9308 1.87263 11.5065 2.80765 11.7311 3.85123C11.9558 4.89481 11.8158 5.98386 11.3347 6.93676C10.8535 7.88965 10.0602 8.64878 9.08706 9.08754C8.776 9.77524 8.30278 10.3772 7.70798 10.8419C7.11318 11.3065 6.41455 11.62 5.67201 11.7553C4.92947 11.8907 4.16518 11.8439 3.44469 11.619C2.7242 11.3941 2.069 10.9978 1.53529 10.4641C1.00159 9.93044 0.605296 9.27524 0.380411 8.55475C0.155525 7.83425 0.108755 7.06996 0.244112 6.32742C0.379468 5.58488 0.692912 4.88626 1.15756 4.29146C1.62221 3.69666 2.2242 3.22343 2.91189 2.91238C3.28181 2.0939 3.87999 1.3995 4.63468 0.912481C5.38937 0.425459 6.26853 0.166488 7.16673 0.166627ZM4.83339 3.66663C4.37377 3.66663 3.91864 3.75716 3.494 3.93305C3.06936 4.10894 2.68352 4.36675 2.35852 4.69175C2.03351 5.01676 1.77571 5.40259 1.59982 5.82723C1.42392 6.25187 1.33339 6.707 1.33339 7.16663C1.33339 7.62625 1.42392 8.08138 1.59982 8.50602C1.77571 8.93066 2.03351 9.31649 2.35852 9.6415C2.68352 9.96651 3.06936 10.2243 3.494 10.4002C3.91864 10.5761 4.37377 10.6666 4.83339 10.6666C5.76165 10.6666 6.65189 10.2979 7.30827 9.6415C7.96464 8.98512 8.33339 8.09488 8.33339 7.16663C8.33339 6.23837 7.96464 5.34813 7.30827 4.69175C6.65189 4.03538 5.76165 3.66663 4.83339 3.66663ZM5.41673 4.24996V4.83329H6.58339V5.99996H4.25006C4.17718 5.99983 4.10688 6.02699 4.05302 6.07609C3.99916 6.12519 3.96564 6.19269 3.95905 6.26527C3.95246 6.33786 3.97329 6.41028 4.01744 6.46828C4.06158 6.52627 4.12584 6.56564 4.19756 6.57863L4.25006 6.58329H5.41673C5.8035 6.58329 6.17443 6.73694 6.44792 7.01043C6.72141 7.28392 6.87506 7.65485 6.87506 8.04163C6.87506 8.4284 6.72141 8.79933 6.44792 9.07282C6.17443 9.34631 5.8035 9.49996 5.41673 9.49996V10.0833H4.25006V9.49996H3.08339V8.33329H5.41673C5.48961 8.33343 5.55991 8.30627 5.61377 8.25716C5.66763 8.20806 5.70115 8.14057 5.70774 8.06798C5.71432 7.99539 5.69349 7.92297 5.64935 7.86497C5.6052 7.80698 5.54095 7.76761 5.46923 7.75463L5.41673 7.74996H4.25006C3.86329 7.74996 3.49235 7.59631 3.21886 7.32282C2.94537 7.04933 2.79173 6.6784 2.79173 6.29163C2.79173 5.90485 2.94537 5.53392 3.21886 5.26043C3.49235 4.98694 3.86329 4.83329 4.25006 4.83329V4.24996H5.41673ZM7.16673 1.33329C6.67246 1.33271 6.1837 1.43709 5.73279 1.63952C5.28188 1.84195 4.87909 2.13781 4.55106 2.50754C5.21038 2.46752 5.87069 2.56792 6.48831 2.8021C7.10594 3.03627 7.66682 3.3989 8.13386 3.866C8.6009 4.33309 8.96346 4.89401 9.19757 5.51167C9.43168 6.12933 9.532 6.78964 9.49189 7.44896C10.0223 6.97741 10.3968 6.35576 10.5657 5.66647C10.7346 4.97719 10.6901 4.25283 10.4378 3.58946C10.1856 2.9261 9.73773 2.35508 9.15352 1.95214C8.56931 1.5492 7.87642 1.33338 7.16673 1.33329Z" fill="#00BA07"/>
</svg>
