<svg width="100" height="100" viewBox="0 0 11 14" fill="none" xmlns="http://www.w3.org/2000/svg">
<path d="M6.53125 0C6.53125 0 7.04 1.73933 7.04 3.15049C7.04 4.50258 6.11187 5.59869 4.69562 5.59869C3.2725 5.59869 2.2 4.50258 2.2 3.15049L2.22063 2.91421C0.831875 4.48945 0 6.53071 0 8.74918C0 11.6503 2.46125 14 5.5 14C8.53875 14 11 11.6503 11 8.74918C11 5.21144 9.21938 2.05438 6.53125 0ZM5.30063 12.0309C4.07688 12.0309 3.08687 11.112 3.08687 9.97C3.08687 8.9067 3.80875 8.15846 5.01875 7.92218C6.23563 7.68589 7.49375 7.12799 8.195 6.22879C8.46313 7.07548 8.60063 7.96812 8.60063 8.88045C8.60063 10.6198 7.1225 12.0309 5.30063 12.0309Z" fill="#3A0CA3"/>
</svg>
