<svg width="100" height="100" viewBox="0 0 110 84" fill="none" xmlns="http://www.w3.org/2000/svg">
<path d="M7.19416 -10.7168L7.19416 -10.7168L7.19841 -10.7181C15.7833 -13.3417 24.8794 -14.1572 34.5684 -13.0104C43.2103 -11.9876 50.0824 -9.66032 55.2042 -6.04111C60.3303 -2.41895 63.4865 2.09125 64.5786 7.72773C65.6465 13.2392 64.6063 19.5949 61.782 26.6164L39.1578 23.9387C41.2573 18.0763 41.2712 13.1584 39.2169 9.34679C37.1088 5.43546 32.9341 3.12623 26.7589 2.39534C19.4843 1.53434 12.6645 3.46429 6.20822 7.90514C-0.239668 12.3402 -5.49507 19.0786 -9.74561 27.7743C-13.9986 36.4748 -15.4096 43.6644 -13.7679 49.0533C-12.179 54.5833 -7.68833 57.7173 -0.424508 58.577C5.75075 59.3079 11.6029 58.1854 17.0951 55.1736C22.4491 52.2376 26.7991 47.9533 30.2143 42.2546L52.8293 44.9312C48.8566 51.8036 43.8415 57.5697 37.7909 62.244C31.6046 67.023 24.5647 70.4523 16.7883 72.5453C8.88811 74.6206 0.677081 75.0375 -7.97031 74.014C-17.6651 72.8665 -25.0656 70.2234 -30.2233 65.8518L-30.2232 65.8517L-30.2306 65.8457C-35.5799 61.5744 -38.4816 55.9659 -38.9388 49.0088L-38.939 49.0056C-39.4543 42.1662 -37.4512 34.0959 -33.0148 25.0202C-28.5795 15.9464 -22.9638 8.42865 -16.1215 2.32985C-9.28482 -3.76395 -1.51736 -8.10971 7.19416 -10.7168ZM45.5126 76.6726L45.5127 76.6725L45.5074 76.6634C44.0507 74.1799 44.253 71.2858 45.9054 67.9054C47.4978 64.6477 49.991 62.0236 53.586 60.1365C57.2069 58.2357 60.8139 57.4389 64.6421 57.892C68.1994 58.3131 70.6778 59.8251 72.1485 62.3292C73.4834 64.8098 73.3981 67.7266 71.8118 70.9717C70.1647 74.3412 67.5415 76.9583 64.0595 78.8677L64.0595 78.8676L64.0466 78.875C60.5245 80.8906 56.9881 81.5752 53.28 81.1364C49.4401 80.6819 46.9177 79.2798 45.5126 76.6726Z" stroke="#CB32B5"/>
<path d="M43.5818 39.5451L19.9788 36.7515C16.5744 42.5746 12.2336 46.8892 6.89751 49.8154C1.56146 52.7416 -4.13935 53.8457 -10.2049 53.1278C-17.3254 52.285 -21.6893 49.2273 -23.2378 43.8344C-24.8451 38.5617 -23.4764 31.4812 -19.2491 22.833C-15.0217 14.1849 -9.82906 7.55693 -3.52474 3.22061C2.77959 -1.11571 9.41883 -2.99822 16.5393 -2.15545C22.6049 -1.43755 26.6617 0.821485 28.7098 4.62164C30.758 8.42179 30.7098 13.3715 28.4922 19.3351L52.0952 22.1287C55.0905 14.8595 56.2244 8.25939 55.1157 2.53742C54.0069 -3.18454 50.8019 -7.75693 45.618 -11.42C40.4341 -15.083 33.4907 -17.4296 24.788 -18.4596C15.0303 -19.6145 5.8424 -18.796 -2.84887 -16.1399C-11.672 -13.4994 -19.5442 -9.09452 -26.4655 -2.92529C-33.3868 3.24395 -39.0492 10.8328 -43.5114 19.9614C-47.9736 29.09 -50.0026 37.236 -49.481 44.1591C-49.0181 51.2023 -46.0778 56.8869 -40.66 61.2129C-35.4328 65.6435 -27.9475 68.3083 -18.1899 69.4632C-9.4871 70.4932 -1.19336 70.0772 6.80877 67.9748C14.679 65.8568 21.8178 62.3816 28.0933 57.5336C34.3687 52.6856 39.5316 46.6895 43.5818 39.5451Z" fill="#CA3EB6"/>
<path d="M35.0055 71.9474C36.4685 74.6618 39.1046 76.1174 43.0604 76.5856C46.8844 77.0382 50.5775 76.3317 54.2571 74.226C57.878 72.2404 60.6057 69.5137 62.3084 66.0304C63.9523 62.6673 64.0429 59.6285 62.6531 57.0498C61.1314 54.4555 58.5538 52.8798 54.8617 52.4428C50.9059 51.9746 47.1542 52.8012 43.4015 54.7712C39.6487 56.7412 37.0528 59.4835 35.4089 62.8467C33.7062 66.3299 33.4839 69.3531 35.0055 71.9474Z" fill="#CA3EB6"/>
</svg>
