<svg width="100" height="100" viewBox="0 0 110 70" fill="none" xmlns="http://www.w3.org/2000/svg">
<path d="M72.1942 13.2832L72.1942 13.2832L72.1984 13.2819C80.7833 10.6583 89.8794 9.84282 99.5684 10.9896C108.21 12.0124 115.082 14.3397 120.204 17.9589C125.33 21.581 128.486 26.0913 129.579 31.7277C130.647 37.2392 129.606 43.5949 126.782 50.6164L104.158 47.9387C106.257 42.0763 106.271 37.1584 104.217 33.3468C102.109 29.4355 97.9341 27.1262 91.7589 26.3953C84.4843 25.5343 77.6645 27.4643 71.2082 31.9051C64.7603 36.3402 59.5049 43.0786 55.2544 51.7743C51.0014 60.4748 49.5904 67.6644 51.2321 73.0533C52.821 78.5833 57.3117 81.7173 64.5755 82.577C70.7508 83.3079 76.6029 82.1854 82.0951 79.1736C87.4491 76.2376 91.7991 71.9533 95.2143 66.2546L117.829 68.9312C113.857 75.8036 108.842 81.5697 102.791 86.244C96.6046 91.023 89.5647 94.4523 81.7883 96.5453C73.8881 98.6206 65.6771 99.0375 57.0297 98.014C47.3349 96.8665 39.9344 94.2234 34.7767 89.8518L34.7768 89.8517L34.7694 89.8457C29.4201 85.5744 26.5184 79.9659 26.0612 73.0088L26.061 73.0056C25.5457 66.1662 27.5488 58.0959 31.9852 49.0202C36.4205 39.9464 42.0362 32.4286 48.8785 26.3298C55.7152 20.2361 63.4826 15.8903 72.1942 13.2832ZM110.513 100.673L110.513 100.672L110.507 100.663C109.051 98.1799 109.253 95.2858 110.905 91.9054C112.498 88.6477 114.991 86.0236 118.586 84.1365C122.207 82.2357 125.814 81.4389 129.642 81.892C133.199 82.3131 135.678 83.8251 137.148 86.3292C138.483 88.8098 138.398 91.7266 136.812 94.9717C135.165 98.3412 132.542 100.958 129.06 102.868L129.059 102.868L129.047 102.875C125.524 104.891 121.988 105.575 118.28 105.136C114.44 104.682 111.918 103.28 110.513 100.673Z" stroke="#CA3EB6"/>
<path d="M108.582 63.5451L84.9788 60.7515C81.5744 66.5746 77.2336 70.8892 71.8975 73.8154C66.5615 76.7416 60.8606 77.8457 54.7951 77.1278C47.6746 76.285 43.3107 73.2273 41.7622 67.8344C40.1549 62.5617 41.5236 55.4812 45.7509 46.833C49.9783 38.1849 55.1709 31.5569 61.4753 27.2206C67.7796 22.8843 74.4188 21.0018 81.5393 21.8445C87.6049 22.5625 91.6617 24.8215 93.7098 28.6216C95.758 32.4218 95.7098 37.3715 93.4922 43.3351L117.095 46.1287C120.09 38.8595 121.224 32.2594 120.116 26.5374C119.007 20.8155 115.802 16.2431 110.618 12.58C105.434 8.91696 98.4907 6.57042 89.788 5.54038C80.0303 4.38548 70.8424 5.20396 62.1511 7.86008C53.328 10.5006 45.4558 14.9055 38.5345 21.0747C31.6132 27.2439 25.9508 34.8328 21.4886 43.9614C17.0264 53.09 14.9974 61.236 15.519 68.1591C15.9819 75.2023 18.9222 80.8869 24.34 85.2129C29.5672 89.6435 37.0525 92.3083 46.8101 93.4632C55.5129 94.4932 63.8066 94.0772 71.8088 91.9748C79.679 89.8568 86.8178 86.3816 93.0933 81.5336C99.3687 76.6856 104.532 70.6895 108.582 63.5451Z" fill="#CB32B5"/>
<path d="M100.006 95.9474C101.468 98.6618 104.105 100.117 108.06 100.586C111.884 101.038 115.578 100.332 119.257 98.226C122.878 96.2404 125.606 93.5137 127.308 90.0304C128.952 86.6673 129.043 83.6285 127.653 81.0498C126.131 78.4555 123.554 76.8798 119.862 76.4428C115.906 75.9746 112.154 76.8012 108.401 78.7712C104.649 80.7412 102.053 83.4835 100.409 86.8467C98.7062 90.3299 98.4839 93.3531 100.006 95.9474Z" fill="#CB32B5"/>
</svg>
