<svg width="100" height="100" viewBox="0 0 14 10" fill="none" xmlns="http://www.w3.org/2000/svg">
<path fill-rule="evenodd" clip-rule="evenodd" d="M13.0667 8.26675V1.73338H0.933333V8.26675H13.0667ZM14 1.73338V8.26675C14 8.78214 13.5821 9.20009 13.0667 9.20009H0.933333C0.417867 9.20009 0 8.78214 0 8.26675V1.73338C0 1.21792 0.417867 0.800049 0.933333 0.800049H13.0667C13.5821 0.800049 14 1.21792 14 1.73338ZM1.86667 2.89999C1.86667 2.77113 1.97113 2.66666 2.1 2.66666H5.36667C5.49553 2.66666 5.6 2.77113 5.6 2.89999V7.09999C5.6 7.22886 5.49553 7.33333 5.36667 7.33333H2.1C1.97113 7.33333 1.86667 7.22886 1.86667 7.09999V2.89999ZM7 4.53333C6.74227 4.53333 6.53333 4.74226 6.53333 4.99999C6.53333 5.25772 6.74227 5.46666 7 5.46666H9.8C10.0577 5.46666 10.2667 5.25772 10.2667 4.99999C10.2667 4.74226 10.0577 4.53333 9.8 4.53333H7ZM6.53333 6.86666C6.53333 6.60893 6.74227 6.39999 7 6.39999H11.6667C11.9244 6.39999 12.1333 6.60893 12.1333 6.86666C12.1333 7.12439 11.9244 7.33333 11.6667 7.33333H7C6.74227 7.33333 6.53333 7.12439 6.53333 6.86666ZM7 2.66666C6.74227 2.66666 6.53333 2.8756 6.53333 3.13333C6.53333 3.39106 6.74227 3.59999 7 3.59999H10.7333C10.991 3.59999 11.2 3.39106 11.2 3.13333C11.2 2.8756 10.991 2.66666 10.7333 2.66666H7Z" fill="#3A0CA3"/>
</svg>
