<?xml version="1.0" standalone="no"?>
<!DOCTYPE svg PUBLIC "-//W3C//DTD SVG 20010904//EN"
 "http://www.w3.org/TR/2001/REC-SVG-20010904/DTD/svg10.dtd">
<svg version="1.0" xmlns="http://www.w3.org/2000/svg"
 width="100" height="100" viewBox="0 0 290.000000 285.000000"
 preserveAspectRatio="xMidYMid meet">

<g transform="translate(0.000000,285.000000) scale(0.100000,-0.100000)"
fill="#000000" stroke="none">
<path d="M1791 2786 c-6 -7 -24 -16 -39 -19 -17 -4 -33 -16 -40 -31 -6 -14
-16 -26 -22 -26 -5 0 -10 -11 -10 -24 0 -13 -7 -29 -15 -36 -12 -10 -14 -25
-9 -68 3 -30 10 -64 16 -76 6 -11 14 -28 18 -36 4 -8 16 -15 26 -15 22 0 32
41 15 58 -16 16 -13 47 4 47 7 0 18 -7 23 -16 15 -26 34 -6 27 27 -6 24 -3 29
19 35 18 4 33 0 52 -15 58 -46 150 -50 179 -8 20 29 19 41 -9 74 -12 15 -21
34 -18 41 5 17 -26 52 -48 52 -10 0 -23 7 -30 15 -7 8 -25 15 -41 15 -15 0
-31 5 -34 10 -9 15 -51 12 -64 -4z"/>
<path d="M1170 2540 c-19 -4 17 -5 80 -2 63 3 117 6 119 8 8 7 -163 2 -199 -6z"/>
<path d="M1398 2533 c7 -3 16 -2 19 1 4 3 -2 6 -13 5 -11 0 -14 -3 -6 -6z"/>
<path d="M1014 2497 c-80 -33 -179 -97 -242 -158 -29 -27 -33 -37 -28 -62 12
-57 30 -67 120 -65 l81 2 -79 5 c-70 5 -81 9 -99 32 -12 18 -17 34 -12 48 16
51 205 174 325 212 30 9 46 18 35 18 -11 0 -56 -14 -101 -32z"/>
<path d="M683 2513 c9 -2 23 -2 30 0 6 3 -1 5 -18 5 -16 0 -22 -2 -12 -5z"/>
<path d="M588 2503 c12 -2 32 -2 45 0 12 2 2 4 -23 4 -25 0 -35 -2 -22 -4z"/>
<path d="M498 2493 c7 -3 16 -2 19 1 4 3 -2 6 -13 5 -11 0 -14 -3 -6 -6z"/>
<path d="M2630 2492 c0 -7 -7 -12 -17 -12 -9 0 -13 -3 -10 -7 4 -3 2 -12 -3
-18 -8 -9 -5 -14 9 -18 15 -4 20 2 24 27 2 17 3 33 1 35 -2 2 -4 -1 -4 -7z"/>
<path d="M1942 2452 c-17 -55 -42 -75 -91 -70 -21 2 -37 0 -35 -4 6 -10 85
-10 100 0 13 8 49 100 42 107 -3 3 -10 -12 -16 -33z"/>
<path d="M1907 2461 c-4 -17 -3 -21 5 -13 5 5 8 16 6 23 -3 8 -7 3 -11 -10z"/>
<path d="M2498 2473 c7 -3 16 -2 19 1 4 3 -2 6 -13 5 -11 0 -14 -3 -6 -6z"/>
<path d="M2443 2463 c9 -2 23 -2 30 0 6 3 -1 5 -18 5 -16 0 -22 -2 -12 -5z"/>
<path d="M2330 2450 c-17 -6 -9 -7 25 -3 28 3 52 7 54 9 8 7 -54 2 -79 -6z"/>
<path d="M2255 2430 c-13 -5 -14 -9 -5 -9 8 0 24 4 35 9 13 5 14 9 5 9 -8 0
-24 -4 -35 -9z"/>
<path d="M2548 2406 c-48 -88 -178 -183 -323 -238 -29 -10 -37 -16 -20 -13 55
10 209 93 265 143 47 42 112 132 96 132 -3 0 -11 -11 -18 -24z"/>
<path d="M2200 2410 c-8 -5 -10 -10 -5 -10 6 0 17 5 25 10 8 5 11 10 5 10 -5
0 -17 -5 -25 -10z"/>
<path d="M2113 2383 c9 -2 25 -2 35 0 9 3 1 5 -18 5 -19 0 -27 -2 -17 -5z"/>
<path d="M1690 2364 c0 -6 7 -19 16 -30 14 -18 14 -18 3 6 -14 31 -19 36 -19
24z"/>
<path d="M1738 2298 c5 -5 16 -8 23 -6 8 3 3 7 -10 11 -17 4 -21 3 -13 -5z"/>
<path d="M602 2270 c0 -14 2 -19 5 -12 2 6 2 18 0 25 -3 6 -5 1 -5 -13z"/>
<path d="M686 2265 c-16 -25 -16 -25 3 -13 11 6 18 15 15 19 -2 4 2 10 8 12 8
4 9 6 2 6 -7 1 -19 -10 -28 -24z"/>
<path d="M1180 2256 c-8 -13 -28 -40 -43 -59 -15 -20 -29 -46 -29 -59 -1 -13
-26 -48 -58 -83 -86 -90 -95 -113 -95 -225 1 -71 6 -113 24 -168 13 -41 20
-77 15 -81 -5 -5 -144 -18 -309 -30 -427 -31 -415 -29 -447 -62 -25 -25 -28
-34 -27 -96 1 -37 5 -97 9 -133 6 -48 7 -34 4 55 -5 131 2 161 46 182 29 13
727 69 738 58 13 -12 14 -171 2 -228 -17 -82 -80 -203 -149 -284 -52 -61 -58
-73 -45 -83 8 -7 12 -15 9 -18 -3 -3 -14 3 -25 13 -19 17 -18 18 32 75 28 32
60 73 71 90 l20 32 -39 -6 c-21 -3 -158 -15 -304 -26 -146 -11 -282 -22 -303
-25 l-37 -5 -2 47 c-1 29 -3 36 -5 18 -1 -16 5 -124 16 -240 10 -116 19 -189
20 -163 1 55 -14 50 236 73 88 7 191 17 228 21 l68 7 47 -44 47 -44 -35 40
c-78 88 -75 83 -55 105 24 26 39 25 63 -5 35 -44 63 -50 113 -25 259 132 449
402 449 641 l0 77 58 6 c31 3 154 15 272 26 118 12 226 25 240 29 24 8 24 9
-41 72 -37 35 -101 84 -142 109 -49 29 -77 51 -77 63 0 21 23 73 46 105 l17
23 -39 -7 c-32 -5 -43 -2 -58 15 -14 15 -31 21 -61 21 -37 0 -43 3 -58 34 -13
28 -23 36 -54 41 -75 12 -81 15 -93 46 -8 19 -26 37 -46 45 -18 7 -34 18 -36
22 -1 5 -13 12 -25 16 -21 7 -22 5 -14 -16 4 -13 23 -33 41 -46 18 -12 42 -36
52 -52 20 -33 53 -50 99 -50 23 0 34 -8 54 -40 23 -37 29 -40 69 -40 30 0 48
-6 61 -20 10 -11 26 -20 37 -20 22 0 22 6 -2 -60 -23 -65 -63 -103 -126 -120
-91 -26 -228 28 -343 135 -68 64 -141 165 -141 197 0 21 46 93 76 119 11 10
28 19 39 22 14 3 11 5 -10 6 -22 1 -34 -6 -45 -23z m274 -622 c9 -3 16 -10 16
-16 0 -14 -53 -5 -58 10 -4 13 16 16 42 6z"/>
<path d="M975 2230 c-27 -7 -28 -8 -5 -8 14 0 34 3 45 8 25 11 2 11 -40 0z"/>
<path d="M610 2206 c0 -14 4 -27 8 -30 5 -3 6 8 4 25 -5 35 -12 38 -12 5z"/>
<path d="M630 2221 c0 -6 4 -13 10 -16 6 -3 7 1 4 9 -7 18 -14 21 -14 7z"/>
<path d="M660 2113 c12 -18 29 -33 38 -32 14 0 14 2 2 6 -8 3 -25 17 -38 32
l-24 26 22 -32z"/>
<path d="M765 2100 c-16 -7 -17 -9 -3 -9 9 -1 20 4 23 9 7 11 7 11 -20 0z"/>
<path d="M713 2063 c9 -2 23 -2 30 0 6 3 -1 5 -18 5 -16 0 -22 -2 -12 -5z"/>
<path d="M2533 2063 c9 -2 25 -2 35 0 9 3 1 5 -18 5 -19 0 -27 -2 -17 -5z"/>
<path d="M2448 2053 c12 -2 30 -2 40 0 9 3 -1 5 -23 4 -22 0 -30 -2 -17 -4z"/>
<path d="M2378 2043 c6 -2 18 -2 25 0 6 3 1 5 -13 5 -14 0 -19 -2 -12 -5z"/>
<path d="M2448 1933 c6 -2 18 -2 25 0 6 3 1 5 -13 5 -14 0 -19 -2 -12 -5z"/>
<path d="M2273 1913 c9 -2 23 -2 30 0 6 3 -1 5 -18 5 -16 0 -22 -2 -12 -5z"/>
<path d="M2203 1903 c9 -2 23 -2 30 0 6 3 -1 5 -18 5 -16 0 -22 -2 -12 -5z"/>
<path d="M533 1853 c9 -2 25 -2 35 0 9 3 1 5 -18 5 -19 0 -27 -2 -17 -5z"/>
<path d="M478 1843 c6 -2 18 -2 25 0 6 3 1 5 -13 5 -14 0 -19 -2 -12 -5z"/>
<path d="M503 1723 c9 -2 23 -2 30 0 6 3 -1 5 -18 5 -16 0 -22 -2 -12 -5z"/>
<path d="M398 1713 c12 -2 32 -2 45 0 12 2 2 4 -23 4 -25 0 -35 -2 -22 -4z"/>
<path d="M288 1703 c12 -2 32 -2 45 0 12 2 2 4 -23 4 -25 0 -35 -2 -22 -4z"/>
<path d="M2480 1689 l-25 -7 26 -1 c40 -2 92 -41 117 -91 23 -44 24 -44 17
-10 -8 40 -30 86 -45 95 -23 14 -66 21 -90 14z"/>
<path d="M2435 1274 c-82 -7 -350 -29 -595 -49 -245 -20 -459 -38 -475 -40
-23 -4 -41 -20 -75 -66 -55 -76 -123 -138 -220 -202 l-75 -49 55 6 c30 3 217
20 415 36 198 17 491 42 650 55 160 14 352 30 428 37 85 7 137 15 137 22 0 18
-19 187 -26 229 -7 43 11 42 -219 21z"/>
<path d="M2683 925 c0 -22 2 -30 4 -17 2 12 2 30 0 40 -3 9 -5 -1 -4 -23z"/>
<path d="M2693 825 c0 -22 2 -30 4 -17 2 12 2 30 0 40 -3 9 -5 -1 -4 -23z"/>
<path d="M912 790 c0 -14 2 -19 5 -12 2 6 2 18 0 25 -3 6 -5 1 -5 -13z"/>
<path d="M1115 749 c-88 -10 -283 -29 -433 -42 -167 -15 -277 -28 -285 -36 -8
-8 -9 -16 -1 -29 13 -20 2 -21 384 14 379 34 558 55 577 69 10 7 14 19 10 29
-8 20 -38 20 -252 -5z"/>
<path d="M2705 640 c3 -52 8 -154 11 -225 7 -129 6 -131 -18 -159 -29 -35 -31
-35 -593 -66 -523 -30 -1014 -66 -1536 -114 -163 -15 -200 -12 -224 14 -19 21
-23 53 -52 390 -10 118 -19 203 -21 188 -7 -60 38 -539 54 -569 28 -55 32 -55
427 -25 511 38 652 48 1312 91 621 42 627 42 656 97 12 23 5 272 -12 408 -7
57 -7 54 -4 -30z"/>
<path d="M2453 511 c-34 -3 -67 -11 -74 -18 -16 -16 -2 -168 17 -184 23 -19
195 -5 211 16 13 19 7 147 -9 178 -9 18 -28 19 -145 8z"/>
</g>
</svg>
