<svg width="100" height="100" viewBox="0 0 307 234" fill="none" xmlns="http://www.w3.org/2000/svg">
<path fill-rule="evenodd" clip-rule="evenodd" d="M80.7604 80.8013C81.054 80.9388 81.3718 81.0168 81.6958 81.0305C82.0195 81.0443 82.3429 80.9939 82.6473 80.8819C82.7065 80.8672 82.7596 80.8329 82.7971 80.7848C82.835 80.7365 82.8555 80.6769 82.8555 80.6159C82.8555 80.5547 82.835 80.4951 82.7971 80.447C82.7596 80.3987 82.7065 80.3647 82.6473 80.3497C81.3938 79.8105 80.3277 78.9129 79.5832 77.7694C79.5638 77.7104 79.5251 77.6597 79.4732 77.6257C79.4216 77.5917 79.3594 77.5761 79.2979 77.5817C79.236 77.5873 79.1779 77.6137 79.1331 77.6568C79.0882 77.6996 79.0592 77.7562 79.051 77.8177C78.973 78.4332 79.0976 79.0575 79.4061 79.5958C79.7145 80.1342 80.1898 80.5573 80.7604 80.8013ZM202.116 41.4351C187.602 43.3219 178.055 44.6605 178.055 44.6605C177.797 44.6605 177.893 44.9185 177.893 45.1766V116.845C177.893 116.974 178.297 117.087 178.442 117.103C190.392 118.458 208.003 119.813 226.049 121.022C238.305 121.829 297.572 125.022 297.572 125.022C297.74 125.022 297.901 124.959 298.024 124.844C298.088 124.789 298.141 124.719 298.179 124.641C298.215 124.563 298.232 124.479 298.232 124.393C298.329 118.345 299.49 32.1298 299.49 32.1298C299.49 32.0392 299.472 31.9497 299.437 31.8667C299.399 31.7838 299.346 31.7084 299.282 31.646C299.217 31.582 299.138 31.5322 299.053 31.4991C298.965 31.4659 298.874 31.4498 298.78 31.4524C279.736 32.6458 258.013 34.7746 238.289 37.0001C224.807 38.5645 212.244 40.1127 202.116 41.4351ZM298.153 32.8877L296.96 123.764C293.831 123.635 238.37 120.893 226.097 120.167C208.18 119.103 190.618 117.894 178.7 116.652V45.6926C181.345 45.3217 237.628 38.3548 250.514 37.0163C266.496 35.3391 283.123 33.8231 298.153 32.8877Z" fill="black"/>
<path fill-rule="evenodd" clip-rule="evenodd" d="M204.133 79.221C204.099 87.3725 207.293 95.2055 213.019 101.009C215.853 103.891 219.233 106.181 222.961 107.746C226.689 109.308 230.691 110.114 234.734 110.114C238.776 110.114 242.778 109.308 246.508 107.746C250.236 106.181 253.616 103.891 256.449 101.009C260.766 96.6408 263.678 91.0837 264.813 85.0493C265.949 79.0148 265.254 72.7786 262.819 67.1418C265.011 67.1494 267.16 66.5304 269.01 65.3578C270.862 64.1852 272.341 62.5077 273.271 60.5232C274.201 58.5387 274.545 56.3293 274.261 54.156C273.977 51.9826 273.08 49.9357 271.671 48.2561C270.263 46.5763 268.404 45.3342 266.313 44.6759C264.223 44.0173 261.989 43.9698 259.872 44.5395C257.755 45.109 255.845 46.2716 254.367 47.8902C252.89 49.509 251.905 51.5161 251.53 53.6757C246.916 50.6661 241.577 48.956 236.074 48.7253C230.569 48.4948 225.106 49.7521 220.256 52.365C215.407 54.9779 211.351 58.8498 208.517 63.573C205.682 68.2962 204.173 73.6964 204.149 79.2048L204.133 79.221ZM259.803 53.208L261.722 57.5623L265.657 47.628L267.851 48.9988L263.303 61.2876L260.077 61.5941L257.368 55.6754L259.803 53.208ZM234.726 49.273C240.697 49.2894 246.516 51.1543 251.385 54.6111V55.6754C251.385 58.5112 252.435 61.2466 254.332 63.3549C256.228 65.4628 258.838 66.7946 261.658 67.0934C264.061 72.5716 264.765 78.6451 263.678 84.5276C262.592 90.4105 259.764 95.8318 255.562 100.089C252.846 102.84 249.609 105.024 246.043 106.515C242.476 108.005 238.649 108.772 234.782 108.772C230.917 108.772 227.09 108.005 223.521 106.515C219.955 105.024 216.72 102.84 214.002 100.089C208.507 94.52 205.415 87.0179 205.388 79.194C205.361 71.37 208.401 63.8472 213.857 58.2396C216.561 55.4271 219.8 53.1845 223.384 51.6445C226.969 50.1043 230.826 49.2979 234.726 49.273Z" fill="black"/>
<path fill-rule="evenodd" clip-rule="evenodd" d="M306.234 24.9052C306.167 24.8434 306.087 24.7961 306.002 24.7656C305.914 24.7352 305.824 24.7223 305.733 24.7278C284.542 26.0986 260.367 28.5338 238.418 31.0819C223.404 32.8236 171.378 39.8389 171.378 39.8389C171.12 39.8389 171.249 40.0969 171.249 40.355V122.49C171.249 122.619 171.668 122.732 171.813 122.748C184.925 124.264 204.197 125.796 224.001 127.151C224.42 128.764 226.178 135.214 227.033 140.181C227.334 141.689 227.479 143.224 227.468 144.762C227.481 145.038 227.414 145.313 227.274 145.552C225.662 147.165 216.485 149.987 216.211 150.1C216.076 150.14 215.957 150.226 215.878 150.344C215.799 150.462 215.762 150.604 215.776 150.745L216.034 153.873C216.042 154.019 216.101 154.155 216.202 154.259C216.303 154.362 216.439 154.426 216.582 154.438C254.303 159.469 252.062 159.389 252.4 159.276C255.693 157.889 258.884 156.272 261.948 154.438C262.897 153.855 263.769 153.156 264.544 152.357C264.982 151.929 265.253 151.356 265.302 150.745C264.943 148.448 264.404 146.183 263.689 143.971C262.077 138.537 259.835 131.554 259.125 129.457L304.378 131.86C304.463 131.867 304.551 131.854 304.633 131.824C304.712 131.794 304.786 131.746 304.847 131.683C304.909 131.626 304.959 131.556 304.991 131.478C305.026 131.4 305.041 131.316 305.041 131.231C305.152 124.296 306.442 25.5019 306.442 25.5019C306.457 25.3931 306.442 25.2823 306.407 25.1788C306.372 25.0753 306.313 24.9818 306.234 24.9052ZM234.483 155.534L217.243 153.212L217.066 151.1H217.211C218.55 151.293 228.581 152.583 230.581 152.809C234.919 153.293 250.497 154.857 251.546 154.954C251.311 155.929 251.311 156.945 251.546 157.921L234.483 155.534ZM262.738 144.149C263.387 146.256 263.862 148.414 264.157 150.6C264.099 150.91 263.934 151.19 263.689 151.39C262.964 152.095 262.157 152.712 261.286 153.228C258.522 154.874 255.65 156.334 252.691 157.599C252.824 156.636 252.746 155.658 252.465 154.728C253.304 154.373 256.19 153.115 258.771 151.874C260.241 151.207 261.649 150.414 262.98 149.503C263.005 149.479 263.024 149.45 263.038 149.418C263.051 149.386 263.059 149.352 263.059 149.317C263.059 149.282 263.051 149.249 263.038 149.217C263.024 149.185 263.005 149.156 262.98 149.132C262.929 149.081 262.859 149.053 262.786 149.053C262.714 149.053 262.644 149.081 262.593 149.132C261.593 149.758 260.541 150.297 259.448 150.745C256.497 152.019 252.658 153.454 251.868 153.744C251.159 153.744 220.146 150.68 218.614 150.519C228.29 147.148 228.29 146.213 228.436 144.762C228.419 143.134 228.23 141.512 227.871 139.923C226.936 135.085 225.081 128.957 224.517 127.022L259.109 129.425H258.545C259.109 131.215 261.286 138.537 262.738 144.181V144.149ZM303.783 130.425C300.443 130.279 238.499 127.199 224.839 126.28C204.89 125.038 185.344 123.651 172.055 122.216V40.8226C174.878 40.4195 237.66 32.4043 251.997 30.8561C269.737 28.937 288.365 27.1791 305.105 26.1148L303.783 130.425Z" fill="black"/>
<path fill-rule="evenodd" clip-rule="evenodd" d="M244.875 145.595C248.185 145.749 251.592 145.907 252.046 145.907C253.626 146.036 258.868 146.568 258.868 146.568C258.904 146.571 258.939 146.579 258.971 146.595C259.003 146.611 259.033 146.632 259.057 146.659C259.068 146.671 259.077 146.684 259.085 146.698C259.096 146.715 259.104 146.733 259.111 146.752C259.119 146.775 259.124 146.8 259.126 146.825C259.126 146.836 259.126 146.847 259.126 146.858C259.126 146.875 259.124 146.891 259.121 146.907C259.117 146.925 259.112 146.942 259.104 146.959C259.091 146.99 259.07 147.018 259.043 147.042C259.018 147.065 258.987 147.081 258.953 147.092C258.921 147.102 258.886 147.104 258.851 147.1H251.997C243.409 146.986 236.068 146.273 232.989 145.974C232.154 145.893 231.632 145.842 231.484 145.842C231.414 145.838 231.348 145.807 231.301 145.756C231.253 145.705 231.226 145.638 231.226 145.568C231.228 145.532 231.237 145.497 231.253 145.465C231.269 145.432 231.29 145.403 231.317 145.379C231.344 145.354 231.376 145.337 231.41 145.325C231.431 145.317 231.453 145.312 231.475 145.31C231.489 145.309 231.502 145.309 231.516 145.31C231.516 145.31 237.29 145.294 238.37 145.31C238.887 145.318 241.84 145.455 244.875 145.595ZM282.768 88.3008L281.01 85.0754L278.478 86.301L278.075 76.8828L285.106 83.0918L282.478 84.3658L284.171 87.2848L282.768 88.3008ZM273.112 94.788C273.115 94.7531 273.124 94.7179 273.14 94.6871C273.171 94.6241 273.226 94.5757 273.292 94.5514C273.358 94.5273 273.43 94.53 273.495 94.5581C273.495 94.5581 273.882 94.6226 274.511 94.8C276.547 95.3724 278.486 96.2421 280.268 97.3803L280.962 97.8642C280.994 97.8776 281.024 97.8979 281.048 97.9246C281.064 97.9422 281.079 97.9617 281.09 97.9833C281.095 97.9929 281.099 98.003 281.103 98.0134C281.115 98.0468 281.12 98.0817 281.119 98.1181C281.116 98.153 281.107 98.1882 281.091 98.2189C280.897 98.6383 278.397 97.719 277.962 97.5416C277.236 97.2513 275.688 96.5579 275.011 96.1708C274.411 95.8254 273.829 95.4477 273.269 95.0419C273.237 95.0284 273.207 95.0082 273.183 94.9815C273.159 94.956 273.14 94.9264 273.128 94.8927C273.116 94.8592 273.11 94.8241 273.112 94.788ZM263.012 105.137C264.575 105.973 265.888 107.208 266.818 108.718L267.109 109.25C267.155 109.301 267.181 109.367 267.181 109.435C267.181 109.504 267.155 109.57 267.109 109.621C267.086 109.648 267.057 109.669 267.025 109.685C267.006 109.694 266.986 109.7 266.965 109.703C266.951 109.706 266.937 109.707 266.923 109.707C266.888 109.707 266.853 109.7 266.821 109.685C266.789 109.669 266.76 109.648 266.738 109.621C265.223 108.806 263.941 107.618 263.012 106.17C262.874 105.958 262.749 105.737 262.641 105.508C262.617 105.484 262.598 105.455 262.585 105.424C262.572 105.391 262.565 105.358 262.565 105.323C262.565 105.288 262.572 105.254 262.585 105.222C262.598 105.191 262.617 105.162 262.641 105.137C262.666 105.113 262.695 105.093 262.726 105.081C262.758 105.068 262.792 105.061 262.827 105.061C262.862 105.061 262.895 105.068 262.927 105.081C262.959 105.093 262.988 105.113 263.012 105.137ZM198.66 88.1988C198.727 88.2164 198.788 88.2586 198.827 88.3169C198.859 88.38 198.866 88.4524 198.848 88.5207C198.831 88.589 198.789 88.6483 198.73 88.6879C195.938 90.9336 192.808 92.7249 189.457 93.9937C189.395 94.0286 189.321 94.0394 189.251 94.0206C189.183 94.003 189.123 93.9588 189.086 93.8969C189.054 93.8339 189.047 93.7611 189.064 93.6925C189.082 93.6254 189.125 93.565 189.183 93.526C191.965 91.2641 195.097 89.4722 198.456 88.2202C198.519 88.1885 198.591 88.1809 198.66 88.1988ZM202.149 104.815C203.463 103.587 204.906 102.505 206.455 101.59L206.487 101.606C206.504 101.591 206.523 101.579 206.543 101.569C206.554 101.564 206.565 101.56 206.577 101.556C206.611 101.545 206.644 101.543 206.679 101.545C206.714 101.548 206.748 101.557 206.777 101.573C206.808 101.59 206.836 101.611 206.858 101.638C206.881 101.665 206.897 101.694 206.908 101.728C206.918 101.762 206.921 101.795 206.918 101.83C206.916 101.865 206.906 101.899 206.89 101.928C206.874 101.959 206.853 101.986 206.826 102.009C204.784 104.381 202.448 106.484 199.875 108.266C199.181 108.734 198.73 108.992 198.73 108.992C198.456 109.25 197.165 109.153 202.149 104.815ZM227.42 172.968C228.918 173.413 230.339 174.087 231.629 174.968C232.27 175.414 232.808 175.992 233.209 176.661C233.502 177.15 233.669 177.704 233.693 178.274C233.705 179.193 233.398 180.088 232.822 180.806C232.069 181.775 231.145 182.6 230.097 183.241C228.138 184.452 225.935 185.217 223.646 185.482C222.317 185.677 220.974 185.763 219.63 185.741C217.84 185.716 216.055 185.55 214.292 185.241C213.196 186.078 212.156 186.989 211.18 187.966C210.474 188.678 209.657 189.513 208.739 190.453C201.979 197.372 189.729 209.909 175.942 219.72C166.718 226.284 156.767 231.574 147.365 233.186H147.268C140.253 233.041 133.076 230.38 126.529 226.736C117.315 221.326 108.92 214.631 101.597 206.851C101.479 206.921 101.264 207.101 100.98 207.341C100.012 208.153 98.2412 209.642 96.7586 209.754C93.6945 209.996 96.5006 204.206 98.1133 201.61C92.6462 195.191 86.5502 184.321 82.841 176.758C81.7443 174.516 81.0992 173.097 81.0992 173.097C81.0799 173.066 81.0673 173.031 81.0626 172.995C81.0579 172.959 81.0608 172.921 81.0717 172.886C81.0822 172.851 81.1004 172.819 81.1245 172.79C81.1488 172.764 81.1784 172.741 81.2121 172.726C81.2426 172.71 81.276 172.699 81.3107 172.696C81.3453 172.692 81.3801 172.696 81.4136 172.707C81.4464 172.718 81.4772 172.734 81.5036 172.757C81.53 172.78 81.5514 172.808 81.5669 172.839C81.5914 172.867 82.2697 174.026 83.3466 175.868C87.2357 182.516 96.3238 198.054 98.5971 201.287C102.51 200.396 106.34 199.177 110.047 197.642C113.771 196.116 117.391 194.35 120.885 192.353C127.851 188.394 134.344 183.655 140.237 178.225C135.846 167.427 130.269 157.151 123.61 147.584C100.129 114.153 64.4239 95.2516 38.2496 91.5746C24.2343 101.253 13.4787 114.949 7.39843 130.86C4.75618 137.666 2.94229 144.764 1.99584 152.003C0.217082 166.568 1.19083 181.339 4.86646 195.546C7.20274 205.026 10.3151 214.297 14.1718 223.268C14.1855 223.3 14.1929 223.334 14.1934 223.369C14.194 223.404 14.1878 223.437 14.175 223.47C14.1622 223.502 14.1433 223.532 14.1192 223.556C14.0952 223.581 14.0664 223.602 14.0347 223.615C14.0028 223.628 13.9687 223.636 13.9342 223.636C13.8995 223.638 13.8651 223.631 13.833 223.618C13.768 223.592 13.7158 223.542 13.688 223.478C9.68874 214.526 6.45189 205.252 4.01172 195.755C0.166678 181.475 -0.92791 166.595 0.786309 151.906C1.7093 144.563 3.52354 137.361 6.1889 130.457C12.2696 114.448 22.9961 100.62 36.9917 90.7521C29.5733 89.7684 22.7031 88.1395 19.2518 85.4786C19.2518 85.4786 24.5255 34.7428 39.5398 28.4533C39.5398 28.4533 17.1231 26.1794 18.8164 16.229C20.5097 6.27856 38.169 -7.83262 44.6198 25.7923C44.6198 25.7923 53.2962 20.5994 57.8924 21.6154C57.8924 21.6154 51.3126 3.84338 61.392 1.15016C71.4714 -1.54306 79.1479 0.553455 78.2448 6.81076C77.3416 13.0681 69.6974 22.7443 69.6974 22.7443C69.6974 22.7443 93.888 28.1469 93.888 53.9502C93.888 53.9502 92.3882 54.3695 90.3723 54.821C90.6142 55.8209 94.5008 70.3353 94.5008 70.3353C94.5416 70.4789 94.5299 70.6326 94.468 70.7686C94.4058 70.9044 94.2973 71.0138 94.1622 71.0771L91.0335 72.5447C90.9529 73.609 90.6948 76.6893 90.0659 80.2211C89.6061 82.9097 88.9153 85.5536 88.0016 88.1234C86.0341 93.3325 78.3738 94.9452 72.8261 94.9452L71.8584 101.396C81.5385 106.163 90.6171 112.063 98.9035 118.974C102.081 115.539 105.048 112.411 109.047 108.46C108.98 106.006 109.301 103.556 109.999 101.202C110.838 98.1867 112.353 96.4127 117.288 95.1226C118.707 94.7557 120.162 94.5446 121.627 94.4936C121.657 94.4516 121.687 94.4093 121.718 94.3669L122.013 94.8586C121.685 95.2805 121.362 95.7072 121.046 96.1386C121.288 96.0714 121.545 96.0714 121.788 96.1386C123.497 96.7514 121.965 99.4607 120.965 100.977C121.026 100.997 121.086 101.018 121.146 101.038L120.981 101.203L127.526 104.178C127.086 106.368 125.815 108.971 123.933 108.25C123.762 109.701 123.23 111.087 122.384 112.278C121.539 113.47 120.408 114.431 119.095 115.072C115.514 123.087 113.402 127.264 111.531 130.779C116.224 135.869 120.536 141.297 124.433 147.019C131.024 156.673 136.52 167.032 140.817 177.903C142.804 177.76 144.796 177.728 146.784 177.806C146.977 177.869 147.162 177.955 147.333 178.064C147.443 178.098 147.536 178.173 147.591 178.274C147.627 178.331 147.646 178.399 147.646 178.467C147.646 178.536 147.627 178.603 147.591 178.661C147.069 179.326 146.416 179.874 145.672 180.273C144.65 180.912 143.57 181.452 142.446 181.886H142.301L147.349 189.24C149.881 187.676 156.961 185.547 164.879 183.934C170.962 182.647 177.16 181.983 183.377 181.951C187.937 181.871 192.445 180.987 196.698 179.338C202.262 177.346 207.44 174.635 211.161 172.688C212.984 171.733 214.457 170.962 215.454 170.549C217.347 169.8 219.399 169.54 221.421 169.791C223.044 169.955 224.614 170.455 226.033 171.258C226.45 171.5 226.811 171.824 227.097 172.21C227.254 172.438 227.363 172.696 227.42 172.968ZM67.4235 92.2197C67.4235 92.2197 56.7312 92.4777 45.1843 91.5907C53.8571 93.628 62.2663 96.6587 70.2457 100.622L71.9391 94.3485C71.947 94.2356 71.9989 94.1306 72.083 94.0555C72.1675 93.9802 72.2777 93.9412 72.3906 93.9453C75.7846 93.8298 79.1317 93.1146 82.2765 91.8326C83.2667 91.4415 84.1701 90.8583 84.9343 90.1164C85.6981 89.3749 86.3077 88.4893 86.7276 87.5106C87.5982 85.0118 88.2561 82.4437 88.6951 79.8341C89.4181 75.8911 89.5626 73.8502 89.6404 72.7519C89.7118 71.7433 89.7269 71.5295 90.082 71.3674L93.1139 70.1256C92.9204 69.3192 91.2915 62.3685 90.9368 60.6751C90.4529 58.4819 90.0175 56.3692 89.7595 54.95C86.018 55.7725 80.9218 56.6756 79.8897 55.6274C78.8863 54.5993 78.116 53.3672 77.6319 52.0149C74.1183 55.7461 69.744 58.559 64.8915 60.2075C64.8915 60.2075 59.0535 56.1918 56.5538 61.8202C54.0542 67.4485 57.6021 70.3514 61.65 70.0288C61.65 70.0288 66.8429 88.3814 67.4235 92.2197ZM124.559 103.281C124.31 104.2 123.503 107.169 124.207 107.169C125.465 107.153 126.4 104.944 126.706 103.831L124.626 103.025C124.62 103.056 124.595 103.146 124.559 103.281ZM123.155 103.143C123.222 102.86 123.282 102.609 123.336 102.428L121.707 101.799C121.336 102.88 120.998 105.25 121.82 105.654C122.48 105.977 122.881 104.295 123.155 103.143ZM99.3551 119.394L100.968 120.765C104.452 123.767 107.784 126.943 110.95 130.28C111.176 129.683 111.612 128.57 112.015 127.57L112.032 127.526C112.432 126.536 112.893 125.392 113.402 124.216C117.68 114.177 117.69 114.172 118.721 113.681C119.081 113.51 119.566 113.279 120.401 112.54C121.853 111.332 122.825 109.645 123.142 107.782C122.947 107.487 122.82 107.151 122.772 106.799C122.559 106.916 122.32 106.977 122.078 106.977C121.835 106.977 121.597 106.916 121.385 106.799C119.643 105.815 120.353 103.412 121.256 101.654L120.723 101.444C120.417 101.912 117.579 105.976 117.046 105.541C116.801 105.34 117.883 103.659 119.035 101.869C120.385 99.771 121.831 97.5234 121.352 97.332C120.582 97.0239 115.422 102.152 113.675 103.887C113.411 104.15 113.224 104.335 113.144 104.412C113.121 104.439 113.094 104.46 113.063 104.476C113.033 104.492 112.999 104.502 112.965 104.504C112.93 104.507 112.896 104.504 112.863 104.494C112.83 104.483 112.799 104.467 112.773 104.444C112.746 104.421 112.724 104.394 112.708 104.363C112.692 104.334 112.682 104.3 112.68 104.265C112.677 104.23 112.68 104.197 112.691 104.163C112.701 104.129 112.718 104.1 112.741 104.073C112.75 104.061 112.781 104.019 112.831 103.949C113.457 103.081 117.108 98.0255 120.094 96.4127L120.981 95.1548C118.282 95.5351 115.691 96.4678 113.369 97.8964C112.168 98.7969 111.336 100.103 111.031 101.573C110.456 103.881 110.239 106.264 110.386 108.637C110.395 108.735 110.382 108.833 110.349 108.925C110.315 109.017 110.262 109.101 110.192 109.169C110.192 109.169 108.435 110.895 106.306 112.943C105.806 113.507 100.29 118.555 99.3551 119.394ZM96.6619 208.431C96.8739 208.404 97.0809 208.345 97.2747 208.254C98.4706 207.753 99.2679 207.044 99.9247 206.46C100.853 205.635 101.501 205.06 102.597 205.674C103.171 205.981 103.712 206.348 104.209 206.77C107.081 209.054 107.423 207.272 107.809 205.256C108.121 203.627 108.463 201.846 110.192 201.932C110.99 201.975 111.721 202.305 112.38 202.604C113.454 203.09 114.341 203.491 115.031 202.432C115.625 201.206 116.298 200.021 117.046 198.884C118.401 197.5 120.318 198.086 121.802 198.54C122.809 198.848 123.617 199.095 123.917 198.626C124.276 198.064 124.363 197.287 124.452 196.49C124.547 195.64 124.645 194.768 125.078 194.11C125.916 192.862 127.307 193.054 128.656 193.24C129.746 193.39 130.808 193.537 131.528 192.917C132.206 192.334 132.408 191.253 132.615 190.148C132.899 188.625 133.192 187.057 134.754 186.692C135.543 186.506 136.275 186.511 136.949 186.516C138.202 186.525 139.253 186.532 140.092 185.305C140.669 184.434 140.617 183.783 140.57 183.192C140.539 182.81 140.51 182.454 140.656 182.08C140.792 181.803 140.988 181.56 141.231 181.37C141.475 181.179 141.758 181.048 142.059 180.983C143.129 180.601 144.16 180.122 145.139 179.548C145.66 179.256 146.151 178.916 146.607 178.532C144.63 178.412 142.649 178.412 140.672 178.532C134.852 184.181 128.382 189.125 121.401 193.256C117.897 195.34 114.254 197.184 110.499 198.771C106.81 200.305 103.002 201.534 99.1132 202.448C97.9878 204.301 97.1606 206.321 96.6619 208.431ZM207.277 189.88C208.379 188.755 209.347 187.767 210.164 186.95H210.212C212.65 184.384 215.536 182.285 218.727 180.757C221.313 179.643 224.018 178.831 226.791 178.338C227.093 178.278 227.39 178.19 227.678 178.08L227.887 177.983C227.844 177.802 227.764 177.631 227.65 177.485C227.535 177.337 227.392 177.216 227.226 177.129C227.135 177.114 227.047 177.08 226.968 177.032C226.818 176.933 226.655 176.85 226.484 176.79C226.002 176.641 225.505 176.544 225.001 176.5H223.823C222.137 176.55 220.457 176.754 218.808 177.113H218.582C218.419 177.127 218.257 177.083 218.124 176.988C217.991 176.892 217.898 176.752 217.861 176.592C217.823 176.434 217.844 176.266 217.921 176.122C217.997 175.977 218.124 175.865 218.276 175.806H218.469C221.023 175.115 223.693 174.968 226.307 175.371C225.794 174.683 225.049 174.201 224.211 174.016C223.893 173.918 223.571 173.843 223.243 173.79H222.404C220.837 173.712 219.266 173.782 217.711 174C217.627 174.012 217.541 174.008 217.457 173.988C217.374 173.968 217.296 173.93 217.227 173.879C217.158 173.828 217.1 173.765 217.055 173.691C217.011 173.618 216.983 173.536 216.969 173.452C216.957 173.367 216.962 173.281 216.981 173.198C217.002 173.115 217.039 173.037 217.091 172.966C217.142 172.898 217.205 172.84 217.279 172.796C217.351 172.751 217.433 172.722 217.518 172.71C219.714 172.305 221.966 172.305 224.162 172.71C224.72 172.813 225.261 172.987 225.775 173.226H226.097C226.069 173.124 226.026 173.026 225.968 172.936C225.671 172.585 225.295 172.308 224.872 172.129C223.727 171.589 222.501 171.241 221.243 171.097C219.437 170.867 217.601 171.095 215.905 171.758C214.904 172.166 213.423 172.928 211.591 173.87C207.849 175.795 202.64 178.475 197.053 180.435C192.667 182.1 188.02 182.969 183.328 182.999C177.171 183.053 171.033 183.723 165.008 184.999C156.896 186.515 149.655 188.853 147.413 190.369C147.335 190.4 147.25 190.4 147.172 190.369C147.133 190.364 147.094 190.349 147.06 190.326C147.028 190.303 146.999 190.275 146.978 190.24L141.704 182.257C141.632 182.303 141.575 182.37 141.543 182.451C141.477 182.64 141.501 182.89 141.531 183.194C141.595 183.848 141.684 184.753 140.946 185.853C140.562 186.465 139.999 186.943 139.334 187.224C138.741 187.443 138.111 187.547 137.479 187.531C136.662 187.501 135.845 187.572 135.044 187.74C134.168 187.946 133.988 189.053 133.781 190.328C133.485 192.152 133.134 194.321 130.609 194.691C129.92 194.798 129.281 194.683 128.651 194.57C128.044 194.461 127.445 194.354 126.819 194.449C126.131 194.554 126.036 195.444 125.921 196.517C125.823 197.432 125.711 198.479 125.207 199.287C124.334 200.67 122.878 200.2 121.448 199.74C120.21 199.34 118.992 198.948 118.191 199.771C117.899 200.118 117.664 200.51 117.498 200.932C115.424 205.387 113.823 204.623 112.193 203.844C111.592 203.558 110.988 203.269 110.354 203.238C109.972 203.219 109.767 204.038 109.507 205.075C108.888 207.541 107.961 211.241 103.613 207.835C103.239 207.524 102.846 207.239 102.435 206.98C109.671 214.404 117.898 220.791 126.884 225.961C133.286 229.445 140.301 232.057 147.139 232.057C156.38 230.429 166.089 225.091 175.136 218.64C188.518 209.034 200.466 196.835 207.277 189.88ZM229.258 182.064C230.218 181.49 231.06 180.741 231.742 179.854H231.79C232.107 179.478 232.301 179.013 232.348 178.524C232.394 178.033 232.289 177.541 232.048 177.113C231.467 176.172 230.671 175.382 229.726 174.806C228.954 174.305 228.146 173.864 227.307 173.484C227.257 173.622 227.186 173.753 227.097 173.871L226.904 174.065C227.467 174.611 227.839 175.322 227.968 176.097C228.318 176.295 228.615 176.571 228.839 176.904C229.062 177.237 229.206 177.618 229.258 178.016C229.323 178.645 228.968 179.177 227.984 179.499C224.348 180.151 220.824 181.318 217.518 182.967C216.695 183.451 215.857 183.967 214.986 184.579C216.495 184.66 218.008 184.66 219.518 184.579C220.81 184.522 222.098 184.382 223.372 184.16C225.458 183.877 227.463 183.163 229.258 182.064Z" fill="black"/>
<path fill-rule="evenodd" clip-rule="evenodd" d="M229.032 92.3319C228.194 92.3319 227.516 93.2673 227.516 94.4284C227.516 95.5895 228.194 96.5088 229.032 96.5088C229.871 96.5088 230.532 95.5734 230.532 94.4284C230.532 93.2834 229.919 92.3319 229.032 92.3319ZM243.676 92.3319C242.837 92.3319 242.16 93.2673 242.16 94.4284C242.16 95.5895 242.837 96.5088 243.676 96.5088C244.514 96.5088 245.176 95.5734 245.176 94.4284C245.176 93.2834 244.498 92.3319 243.676 92.3319ZM84.5021 66.1899C84.6452 66.1922 84.7874 66.1653 84.9197 66.1104C85.0519 66.0556 85.1719 65.9747 85.2716 65.8718C85.3712 65.7691 85.449 65.6469 85.4997 65.5132C85.5504 65.3791 85.573 65.2364 85.5665 65.0933C85.5665 64.3514 85.5665 63.6257 85.6472 62.8839C85.6759 62.5886 85.5923 62.2933 85.4129 62.0573C85.2334 61.8209 84.9716 61.6611 84.6795 61.6098C83.2604 61.4163 83.4378 63.3999 83.4378 64.9965C83.4322 65.2927 83.5386 65.5803 83.7363 65.8017C83.9336 66.0228 84.2069 66.1615 84.5021 66.1899Z" fill="black"/>
<path d="M120.981 95.1544C122.325 94.7513 125.497 94.5095 124.207 96.7673C122.917 99.0251 121.519 100.127 120.981 100.396" stroke="black"/>
<path d="M123.804 103.622C124.61 101.74 125.82 98.7835 124.207 98.3802C123.033 98.0867 121.788 99.5897 120.981 100.396" stroke="black"/>
<path d="M124.61 99.9922C126.223 100.261 128.642 100.879 127.029 104.427" stroke="black"/>
</svg>
