<?xml version="1.0" standalone="no"?>
<!DOCTYPE svg PUBLIC "-//W3C//DTD SVG 20010904//EN"
 "http://www.w3.org/TR/2001/REC-SVG-20010904/DTD/svg10.dtd">
<svg version="1.0" xmlns="http://www.w3.org/2000/svg"
 width="100" height="100" viewBox="0 0 305.000000 305.000000"
 preserveAspectRatio="xMidYMid meet">

<g transform="translate(0.000000,305.000000) scale(0.100000,-0.100000)"
fill="#000000" stroke="none">
<path d="M2789 2837 c-75 -67 -167 -150 -205 -184 -62 -55 -68 -63 -57 -81 11
-19 6 -23 -103 -61 -181 -64 -551 -168 -561 -157 -3 3 15 18 41 33 56 34 63
49 36 78 l-21 23 21 42 c21 40 21 42 3 72 -27 47 -79 69 -160 69 -37 0 -82 -5
-98 -11 -40 -15 -94 -67 -111 -107 -19 -44 -45 -43 -108 6 -94 71 -131 78
-204 35 l-45 -26 -79 32 c-90 38 -145 38 -198 0 -70 -50 -59 -105 31 -144 63
-27 72 -41 37 -56 -19 -7 -14 -9 24 -9 38 -1 50 3 62 21 9 12 16 30 16 40 0
23 2 22 50 -2 48 -25 131 -27 165 -4 28 18 55 13 55 -11 0 -9 -9 -15 -23 -15
-39 0 -122 -28 -161 -55 -20 -14 -48 -25 -62 -25 -37 0 -78 -25 -92 -55 -18
-40 -15 -49 13 -31 14 9 35 20 48 25 22 9 23 7 23 -44 -1 -52 -2 -54 -37 -68
-65 -26 -88 -131 -55 -257 8 -30 12 -58 9 -62 -11 -19 -80 -47 -90 -37 -6 6
-48 11 -93 12 -96 2 -113 -11 -51 -39 23 -10 41 -21 41 -25 0 -10 -86 -28
-190 -40 -98 -11 -238 -6 -268 10 -11 6 -25 11 -31 11 -19 0 -141 -91 -141
-106 0 -16 41 -18 110 -4 41 8 47 7 63 -15 45 -60 312 -103 517 -84 110 10
247 39 339 70 30 11 56 18 57 16 2 -2 -7 -17 -19 -34 -19 -27 -27 -31 -67 -31
-49 1 -220 -33 -220 -43 0 -15 184 -181 220 -199 44 -22 119 -26 153 -8 67 35
206 185 258 278 14 24 30 40 41 40 52 0 115 58 152 140 31 68 73 212 87 301
12 67 12 67 53 79 66 20 354 167 441 226 84 56 205 163 205 179 0 6 -5 2 -11
-7 -14 -25 -32 -23 -19 2 10 19 50 29 50 12 0 -12 -98 -179 -153 -262 -119
-176 -363 -498 -520 -687 -426 -510 -788 -830 -1169 -1031 l-76 -40 29 -28
c15 -15 26 -31 23 -35 -8 -14 -133 -81 -208 -111 -39 -16 -106 -38 -150 -48
-43 -11 -81 -22 -85 -26 -3 -3 16 -25 42 -49 l49 -43 -54 -25 c-47 -22 -166
-57 -238 -70 -14 -2 15 -5 63 -6 50 0 119 6 160 15 76 17 197 62 197 73 0 3
-21 19 -46 35 -25 16 -42 32 -37 36 4 4 58 22 118 39 156 46 373 140 354 154
-2 2 -23 18 -47 36 l-43 33 59 28 c155 73 397 222 557 343 200 150 488 415
667 611 212 233 584 706 694 883 26 40 50 73 54 73 4 0 13 -13 19 -30 12 -36
38 -39 51 -6 18 48 31 225 28 381 -3 151 -4 160 -23 162 -13 2 -66 -39 -156
-120z m-212 -281 c-7 -15 -16 -21 -21 -16 -12 12 0 40 18 40 11 0 12 -5 3 -24z
m-737 -5 c0 -5 9 -11 19 -14 27 -7 47 -80 31 -116 -17 -41 -75 -74 -116 -66
-30 5 -49 25 -25 25 18 0 19 29 2 52 -12 15 -17 34 -14 58 4 29 11 38 41 52
43 19 62 22 62 9z m715 -28 c18 -48 -254 -226 -520 -341 -120 -51 -113 -52
-118 15 -3 56 -3 56 -5 -15 -4 -136 -68 -384 -121 -462 -25 -38 -91 -90 -114
-90 -4 0 15 44 42 98 97 193 126 312 119 485 -3 82 -1 107 9 107 7 0 13 4 13
9 0 5 31 16 69 25 109 25 366 101 486 144 131 47 131 47 140 25z m-839 -88
c10 -15 13 -32 9 -42 -6 -15 -8 -15 -13 -3 -2 8 -13 23 -23 33 -11 10 -19 22
-19 27 0 19 30 9 46 -15z m-93 -40 c47 -17 51 -23 41 -61 -5 -19 -11 -21 -80
-16 -53 3 -74 1 -74 -7 0 -8 -10 -6 -29 5 -25 15 -32 15 -45 5 -9 -7 -33 -20
-53 -28 -29 -11 -32 -13 -10 -10 15 2 27 1 27 -4 0 -4 3 -14 6 -23 5 -13 -1
-16 -27 -16 -19 0 -41 5 -49 10 -13 9 -13 11 0 20 12 7 8 10 -15 9 l-30 0 40
-36 c24 -21 35 -37 28 -40 -10 -3 -9 -12 4 -36 14 -26 18 -29 21 -13 3 14 10
17 34 12 17 -3 39 -6 49 -6 11 0 19 -5 19 -10 0 -6 -12 -8 -27 -5 l-28 5 26
-10 27 -11 -15 -59 c-9 -33 -18 -60 -22 -60 -3 0 -13 20 -22 45 -13 36 -14 45
-3 47 8 2 4 7 -10 14 l-23 11 26 -73 c24 -68 25 -74 9 -90 -22 -23 -53 -13
-130 39 -108 74 -172 185 -150 262 7 25 14 30 38 30 16 -1 40 -4 54 -8 l25 -8
-24 20 c-12 12 -33 19 -45 17 -11 -2 -16 -1 -9 1 7 2 10 10 7 17 -9 24 105 70
201 80 72 7 189 -2 238 -19z m75 -32 c-2 -20 2 -28 17 -31 17 -4 18 -3 5 14
-14 16 -13 17 10 10 14 -4 40 -9 58 -13 25 -4 31 -10 27 -24 -3 -9 -1 -20 5
-24 13 -8 13 -189 -1 -257 -6 -29 -22 -88 -36 -131 -32 -100 -48 -111 -146
-105 -86 6 -162 37 -222 92 l-40 37 35 -6 c19 -4 44 -7 55 -7 11 1 37 -16 58
-36 l39 -37 42 47 c47 51 156 255 156 291 0 31 -56 117 -75 117 -13 0 -15 7
-9 38 4 20 9 40 11 45 9 15 14 6 11 -20z m-561 -47 c0 -15 -76 -50 -86 -40 -9
9 48 54 68 54 10 0 18 -6 18 -14z m351 -15 c28 -24 28 -27 -7 -45 -27 -14 -29
-14 -50 12 l-21 26 23 13 c28 16 28 16 55 -6z m165 -2 c26 -7 47 -23 67 -51
33 -45 41 -78 10 -38 -11 14 -20 21 -19 15 0 -5 6 -19 14 -29 16 -21 20 -56 8
-56 -5 1 -18 17 -31 37 -18 28 -22 45 -18 72 5 30 4 32 -4 13 -8 -18 -15 -22
-32 -16 -49 15 -52 14 -13 -6 25 -13 31 -18 15 -15 -14 3 -43 9 -65 12 -81 12
-90 46 -11 41 30 -1 52 0 49 5 -2 4 -26 7 -54 7 -27 0 -49 5 -49 10 0 13 85
13 133 -1z m-133 -49 c0 -5 -10 -10 -22 -10 -19 0 -20 2 -8 10 19 13 30 13 30
0z m-28 -50 c-5 -32 -14 -35 -84 -24 -28 5 -37 12 -41 30 -4 23 -2 24 63 24
l67 0 -5 -30z m131 19 c22 -6 37 -16 37 -25 0 -11 -6 -14 -22 -9 -23 7 -23 7
-3 -9 l20 -15 -20 -1 c-11 -1 -14 -4 -7 -7 17 -7 16 -15 -19 -92 -24 -54 -35
-68 -48 -63 -13 5 -14 3 -4 -9 10 -12 8 -20 -5 -41 l-18 -27 -38 40 c-37 40
-47 88 -17 81 12 -3 12 0 1 12 -9 11 -9 16 -1 16 20 0 61 -32 55 -42 -3 -5
-13 -4 -22 3 -16 12 -16 11 0 -5 13 -14 14 -25 7 -44 -5 -14 -8 -27 -5 -29 7
-7 68 186 63 200 -3 7 -6 5 -6 -5 -1 -10 -6 -18 -11 -18 -19 0 -60 32 -60 46
0 18 5 18 38 -2 26 -16 26 -15 -3 10 -16 14 -27 28 -23 31 3 3 19 -6 36 -20
16 -14 34 -25 38 -25 5 0 -7 14 -26 30 l-35 29 30 1 c17 0 47 -5 68 -11z m76
-55 c25 -42 26 -56 5 -96 l-16 -31 -20 24 -19 24 15 -32 c16 -31 15 -34 -15
-84 l-32 -51 -14 27 c-9 16 -12 38 -8 53 6 26 7 26 21 8 16 -23 19 -14 4 13
-6 13 -5 31 7 60 17 45 32 52 40 21 3 -11 9 -20 14 -20 5 0 3 13 -6 29 -9 18
-12 41 -9 60 4 17 8 31 9 31 2 0 12 -16 24 -36z m-553 -26 c24 -46 99 -122
155 -159 27 -17 49 -34 49 -38 0 -4 -31 -19 -70 -34 -84 -33 -206 -55 -220
-41 -13 13 -30 106 -29 158 0 67 20 109 59 128 19 10 36 18 37 18 1 0 10 -14
19 -32z m385 -5 c32 -19 33 -21 19 -58 l-10 -26 -30 18 c-17 10 -29 24 -27 33
3 15 8 16 42 5 13 -4 10 0 -7 11 -16 10 -28 22 -28 26 0 12 9 10 41 -9z m-55
-181 c-3 -21 -56 -30 -56 -10 0 21 20 36 40 31 10 -3 17 -12 16 -21z m120 -16
c6 -25 -10 -66 -26 -66 -5 0 -14 9 -20 20 -8 15 -7 26 6 45 20 31 32 32 40 1z
m-66 -31 c20 -24 6 -28 -15 -5 -10 11 -13 20 -8 20 6 0 16 -7 23 -15z m-586
-103 c6 -3 -7 -14 -29 -23 -37 -17 -40 -16 -82 4 -24 12 -43 25 -43 30 0 10
137 0 154 -11z m-555 -86 c7 -8 9 -25 6 -39 -6 -23 -15 -27 -76 -37 -38 -7
-74 -10 -81 -8 -14 5 101 96 123 97 9 1 22 -5 28 -13z"/>
<path d="M1774 2519 c-3 -6 1 -18 10 -27 15 -15 16 -15 16 1 0 10 -4 15 -10
12 -5 -3 -10 -2 -10 4 0 5 6 12 13 14 9 4 9 6 0 6 -6 1 -15 -4 -19 -10z"/>
<path d="M1847 2518 c-2 -7 0 -21 5 -31 13 -25 0 -40 -28 -33 -28 7 -32 -9
-10 -40 31 -41 73 26 47 75 -8 14 -8 20 1 23 9 3 9 6 1 11 -6 4 -13 1 -16 -5z
m3 -93 c-7 -8 -16 -15 -20 -15 -4 0 -10 7 -14 15 -4 11 2 15 21 15 21 0 24 -2
13 -15z"/>
<path d="M1670 2151 c0 -5 5 -13 10 -16 6 -3 10 -2 10 4 0 5 -4 13 -10 16 -5
3 -10 2 -10 -4z"/>
<path d="M2867 2303 c-2 -4 -8 -39 -12 -78 -34 -338 -155 -746 -320 -1084 -88
-179 -236 -414 -359 -570 -60 -77 -81 -111 -57 -97 14 9 154 195 218 291 192
286 345 623 439 965 63 228 128 635 91 573z"/>
<path d="M366 2275 c-34 -18 -56 -44 -55 -65 0 -8 4 -5 9 7 5 13 24 32 41 42
26 16 35 17 51 8 17 -11 17 -12 2 -16 -14 -2 -15 -5 -3 -13 10 -7 11 -11 2
-14 -6 -3 -30 -18 -52 -35 -48 -34 -48 -34 -54 -11 -3 10 -5 6 -6 -10 -1 -34
4 -34 43 -4 71 53 140 71 187 46 24 -13 25 -2 2 45 -14 29 -22 35 -47 34 -27
-2 -28 -2 -6 -6 24 -4 50 -28 50 -45 0 -4 -22 -8 -49 -8 -44 0 -49 2 -44 20 4
15 0 20 -13 21 -18 0 -18 1 1 9 18 8 18 9 -5 9 -14 1 -38 -6 -54 -14z"/>
<path d="M2815 2245 c-223 -581 -399 -901 -697 -1267 -229 -279 -555 -559
-840 -718 -32 -17 -58 -36 -58 -42 0 -21 207 105 355 216 529 395 946 977
1210 1686 25 68 44 128 42 134 -3 6 -8 2 -12 -9z"/>
<path d="M890 2171 c0 -19 -58 -46 -110 -51 l-55 -5 35 -23 c26 -16 50 -22 92
-22 53 0 62 3 98 37 23 20 45 45 51 55 9 17 5 18 -51 18 -33 0 -60 -4 -60 -9z
m90 -10 c0 -5 -8 -19 -18 -31 -16 -20 -21 -21 -39 -9 -17 10 -24 10 -36 0 -13
-10 -15 -9 -13 2 4 30 29 47 67 47 22 0 39 -4 39 -9z m-118 -52 c3 -9 9 -9 25
-1 18 10 21 9 19 -6 -2 -12 -14 -18 -46 -20 -78 -6 -129 22 -57 31 17 2 37 5
44 5 6 1 13 -3 15 -9z"/>
</g>
</svg>
