<?xml version="1.0" standalone="no"?>
<!DOCTYPE svg PUBLIC "-//W3C//DTD SVG 20010904//EN"
 "http://www.w3.org/TR/2001/REC-SVG-20010904/DTD/svg10.dtd">
<svg version="1.0" xmlns="http://www.w3.org/2000/svg"
 width="100" height="100" viewBox="0 0 353.000000 354.000000"
 preserveAspectRatio="xMidYMid meet">

<g transform="translate(0.000000,354.000000) scale(0.100000,-0.100000)"
fill="#000000" stroke="none">
<path d="M1927 3423 c-29 -98 -57 -243 -48 -243 9 0 65 249 58 256 -3 3 -8 -3
-10 -13z"/>
<path d="M990 3355 c0 -16 75 -156 78 -146 3 10 -24 68 -58 124 -11 18 -20 28
-20 22z"/>
<path d="M550 3253 c0 -13 192 -195 198 -188 3 3 -10 21 -29 41 -56 59 -169
157 -169 147z"/>
<path d="M2653 3114 c-84 -75 -153 -141 -153 -147 0 -6 15 3 33 19 17 17 89
81 160 143 70 62 127 115 127 117 0 14 -31 -11 -167 -132z"/>
<path d="M2360 2873 c-14 -10 -81 -45 -150 -79 -102 -50 -330 -180 -460 -263
-24 -15 -24 -15 -11 2 29 37 46 217 25 253 -14 24 -107 74 -136 74 -33 0 -147
-59 -164 -85 -13 -19 -15 -38 -11 -76 8 -64 3 -76 -42 -99 l-37 -19 -190 60
c-104 33 -232 71 -284 85 -52 15 -102 33 -111 41 -17 14 -62 10 -86 -9 -20
-16 -10 -50 17 -61 14 -6 36 -23 50 -38 24 -27 320 -211 448 -279 34 -18 62
-37 62 -41 0 -5 -12 -34 -27 -65 l-28 -56 34 -29 c46 -38 168 -102 181 -94 17
11 11 -37 -11 -81 -18 -39 -25 -44 -72 -53 -200 -42 -457 -106 -457 -116 0 -6
27 -88 60 -183 33 -95 58 -172 56 -172 -2 0 -82 30 -177 66 -236 90 -327 122
-332 118 -2 -2 34 -62 80 -132 78 -117 403 -653 403 -664 0 -3 -38 -8 -85 -10
-97 -7 -164 -37 -190 -88 -38 -73 -9 -111 146 -190 68 -34 143 -76 166 -91 45
-32 101 -96 127 -146 17 -33 14 -53 -24 -194 -12 -45 -13 -59 -1 -59 4 0 14
28 20 63 7 34 17 79 22 99 l9 37 73 -25 c39 -13 117 -34 172 -46 172 -37 485
-29 651 18 18 5 24 -4 48 -70 16 -42 32 -76 37 -76 12 0 13 -2 -21 81 -37 88
-35 117 16 219 61 121 153 182 409 272 168 59 194 73 220 120 18 35 18 38 3
71 -20 42 -74 69 -149 75 l-57 4 92 142 c51 77 136 213 189 301 53 88 121 198
151 245 l55 85 -65 32 c-80 39 -80 39 -64 58 19 23 6 28 -33 14 -33 -12 -41
-10 -118 25 -83 38 -368 156 -377 156 -2 0 1 -7 8 -15 10 -12 -1 -39 -63 -152
-41 -76 -105 -196 -142 -268 -85 -162 -125 -211 -125 -152 0 39 -93 486 -131
631 -10 36 -12 38 -40 32 -97 -20 -89 -21 -88 10 0 23 9 35 46 59 26 17 55 42
66 57 20 27 20 27 -4 85 -13 32 -24 61 -24 64 0 4 36 33 80 64 110 79 235 193
324 298 53 63 80 87 92 84 11 -3 24 4 33 18 17 25 17 25 -28 63 -20 16 -27 15
-56 -5z m24 -19 c16 -6 23 -34 8 -34 -10 0 -32 22 -32 32 0 10 3 10 24 2z
m-20 -36 c21 -35 -217 -278 -390 -398 l-70 -49 -40 56 c-21 31 -50 67 -63 80
-13 13 -22 25 -20 27 2 2 72 43 154 92 160 94 394 215 409 210 5 -1 14 -9 20
-18z m-1588 -103 c-7 -19 -36 -19 -36 0 0 17 33 38 38 24 2 -5 1 -16 -2 -24z
m220 -34 c281 -82 350 -106 345 -122 -3 -8 -4 -33 -3 -56 2 -38 -1 -43 -23
-49 -25 -6 -41 -36 -30 -54 5 -8 11 -8 20 0 9 7 29 6 71 -4 33 -8 70 -16 84
-18 24 -3 25 -6 28 -86 2 -70 -1 -92 -19 -129 -12 -24 -28 -47 -35 -50 -14 -5
-106 42 -161 84 l-33 24 26 52 c15 29 32 55 38 59 14 9 17 7 -114 80 -173 97
-402 240 -407 256 -8 19 14 62 30 62 8 0 90 -22 183 -49z m708 26 c-1 -9 2
-17 7 -17 5 0 6 -7 3 -15 -4 -8 1 -17 9 -21 37 -14 26 -107 -15 -120 -11 -3
-17 -12 -14 -20 4 -10 -2 -14 -19 -14 -38 0 -77 19 -82 40 -3 11 -13 20 -22
20 -22 0 -41 19 -41 42 0 26 21 22 46 -9 l22 -27 7 44 c5 27 16 51 27 59 15
10 17 16 8 21 -9 6 -6 10 9 15 11 3 21 11 21 16 0 6 8 9 18 7 9 -2 16 -11 16
-21z m108 -237 c20 -39 25 -174 8 -185 -5 -3 -10 3 -10 13 0 11 -15 64 -34
117 l-33 96 26 -3 c18 -2 31 -13 43 -38z m-187 4 c30 -12 37 -13 33 -2 -4 10
5 14 34 14 38 1 41 -1 59 -40 18 -41 61 -203 73 -277 6 -36 5 -37 -39 -58 -60
-28 -148 -37 -227 -22 -98 19 -97 17 -54 111 33 73 54 147 71 253 3 20 7 37 9
37 2 0 20 -7 41 -16z m-97 -157 l-23 -72 -3 69 c-3 60 0 72 20 93 23 25 23 25
26 3 2 -12 -7 -54 -20 -93z m392 -24 c11 -25 20 -54 20 -64 0 -19 -86 -96 -97
-86 -7 8 -6 156 3 225 l7 54 23 -42 c13 -23 33 -62 44 -87z m-413 -226 c-2 -7
-11 -13 -20 -15 -12 -3 -17 4 -17 23 0 23 2 25 21 15 11 -6 18 -17 16 -23z
m303 14 c0 -11 -4 -23 -10 -26 -6 -4 -10 5 -10 19 0 14 5 26 10 26 6 0 10 -9
10 -19z m-40 -16 c0 -16 -6 -25 -15 -25 -28 0 -18 40 13 49 1 1 2 -10 2 -24z
m-144 0 c6 -2 14 -13 17 -24 5 -19 1 -21 -33 -21 -55 0 -90 16 -90 40 0 18 5
19 48 14 26 -3 52 -7 58 -9z m81 -15 c1 -15 -4 -20 -23 -20 -23 0 -32 18 -17
33 14 14 39 6 40 -13z m242 -27 c25 -94 101 -451 100 -469 0 -10 -5 -3 -10 16
-41 150 -93 273 -173 404 -38 63 -37 71 4 79 63 11 69 9 79 -30z m-169 -13 c0
-18 39 -50 55 -44 8 4 15 1 15 -5 0 -6 -13 -11 -30 -11 -23 0 -33 7 -45 30
-18 34 -18 40 -5 40 6 0 10 -4 10 -10z m-250 -10 c0 -6 -11 -22 -25 -35 -18
-18 -34 -25 -62 -24 l-38 1 36 10 c21 5 47 20 60 34 25 27 29 29 29 14z m205
-90 c-4 -14 -14 -33 -23 -44 -9 -10 -22 -45 -28 -79 -10 -54 -9 -72 12 -152
12 -49 57 -180 99 -289 42 -110 72 -203 68 -207 -13 -11 -325 -129 -342 -129
-15 0 -91 148 -91 176 0 6 30 78 66 160 156 353 191 467 183 597 -4 58 4 76
15 35 3 -13 6 -41 6 -63 0 -30 3 -36 10 -25 6 8 10 35 9 60 -1 64 2 71 12 25
6 -22 7 -51 4 -65z m868 -1 c28 -11 98 -41 154 -66 89 -40 100 -48 85 -58 -31
-22 -664 -346 -668 -343 -5 5 200 398 258 495 l19 32 50 -19 c27 -11 73 -29
102 -41z m-1248 -36 c-17 -43 -39 -103 -48 -133 -19 -67 -57 -273 -57 -312 0
-15 -3 -28 -7 -28 -17 0 -193 73 -201 83 -5 7 -24 57 -42 112 -18 55 -45 133
-61 173 l-27 72 26 7 c90 23 420 101 434 102 13 1 11 -11 -17 -76z m1538 -121
c-12 -20 -80 -179 -153 -352 -193 -462 -211 -504 -222 -517 -6 -7 -90 -57
-187 -110 -97 -53 -252 -141 -345 -195 -93 -54 -171 -96 -174 -94 -2 3 34 107
81 233 47 125 117 328 156 450 l72 222 137 73 c368 194 647 337 651 332 2 -2
-5 -21 -16 -42z m149 -39 c5 -2 -9 -30 -31 -61 -21 -31 -103 -163 -183 -292
-169 -273 -236 -380 -242 -380 -2 0 29 78 69 173 195 466 229 545 246 579 l19
37 57 -25 c32 -14 61 -28 65 -31z m-2350 -119 c447 -174 625 -247 639 -262 9
-9 54 -98 99 -197 45 -99 134 -285 196 -414 63 -129 114 -235 114 -237 0 -2
-103 44 -485 219 l-190 88 -150 251 c-83 139 -199 329 -258 423 -60 93 -111
173 -113 178 -8 11 -4 10 148 -49z m1365 -96 c-3 -7 -5 -2 -5 12 0 14 2 19 5
13 2 -7 2 -19 0 -25z m10 -40 c-3 -8 -6 -5 -6 6 -1 11 2 17 5 13 3 -3 4 -12 1
-19z m-150 -428 c21 -53 32 -95 29 -112 -9 -45 -160 -448 -168 -448 -11 0
-262 510 -254 517 12 12 331 132 345 130 8 -1 30 -40 48 -87z m798 -123 c68
-34 83 -86 38 -129 -33 -31 -80 -53 -218 -98 -253 -83 -380 -188 -426 -350 -7
-25 -16 -50 -21 -56 -19 -25 -209 -49 -393 -49 -191 0 -266 11 -427 61 -77 25
-78 25 -99 75 -35 81 -133 163 -283 238 -164 82 -195 121 -145 185 40 51 138
81 224 69 38 -5 49 -12 67 -41 16 -26 40 -43 92 -67 39 -18 148 -67 241 -110
94 -42 225 -104 293 -136 l123 -58 142 83 c124 72 282 161 503 282 34 18 64
31 67 28 2 -3 19 15 37 40 18 25 42 47 54 49 29 6 107 -3 131 -16z"/>
<path d="M1693 2646 c21 -32 13 -50 -19 -42 -17 5 -24 2 -24 -8 0 -16 26 -46
40 -46 18 0 21 20 3 21 -12 0 -9 4 10 11 36 13 36 50 0 74 l-28 17 18 -27z"/>
<path d="M1640 2645 c0 -8 5 -15 10 -15 6 0 10 7 10 15 0 8 -4 15 -10 15 -5 0
-10 -7 -10 -15z"/>
<path d="M2820 2724 c-52 -19 -99 -40 -105 -46 -7 -7 -5 -9 5 -5 8 3 57 20
108 37 50 17 92 36 92 41 0 5 -1 9 -2 8 -2 0 -46 -16 -98 -35z"/>
<path d="M305 2461 c-116 -11 -38 -17 178 -13 119 2 217 8 217 13 0 10 -295
10 -395 0z"/>
<path d="M660 1994 c-91 -58 -172 -109 -180 -114 -8 -5 -12 -11 -9 -14 7 -8
359 213 359 225 0 5 -1 9 -2 9 -2 -1 -77 -48 -168 -106z"/>
<path d="M2765 2091 c133 -12 517 -21 470 -11 -22 4 -157 10 -300 13 -160 4
-225 2 -170 -2z"/>
</g>
</svg>
